<?xml version="1.0" encoding="UTF-8"?>
<svg width="400" height="400" version="1.1" xmlns="http://www.w3.org/2000/svg">
 <path d="m178.41 115.87v6.6704q-40.948 10.561-40.948 77.449 0 72.447 50.954 85.231v-107.65q0-23.531 2.9651-34.278 2.9652-10.932 12.97-19.084 10.191-8.3378 24.458-8.3378 25.014 0 46.321 23.531 21.493 23.531 21.493 61.329 0 35.389-22.048 63.182-21.864 27.793-66.147 31.684v76.152h-20.011v-76.152q-38.539-3.3351-61.885-28.719-23.161-25.569-23.161-66.332 0-36.686 21.123-59.847 21.123-23.346 53.918-24.828zm30.016 169.35q58.365-8.7083 58.365-75.411 0-30.757-12.599-51.509-12.414-20.937-29.275-20.937-6.1141 0-10.376 4.4467-4.0749 4.2616-5.1905 10.191-0.92746 5.9292-0.92746 23.346z"/>
</svg>
